<svg width="48" height="48" viewBox="0 0 48 48" fill="none" xmlns="http://www.w3.org/2000/svg">
<g filter="url(#filter0_d_12_75)">
<g clip-path="url(#clip0_12_75)">
<path d="M14.2753 11.4913C14.4366 11.3027 14.6369 11.1512 14.8624 11.0474C15.0878 10.9436 15.3331 10.8898 15.5813 10.8898H30.2571C30.5053 10.8898 30.7506 10.9436 30.9761 11.0474C31.2015 11.1512 31.4018 11.3027 31.5631 11.4913L36.0467 16.7223C36.447 17.1895 36.667 17.7844 36.667 18.3996V18.8378C36.6671 19.6884 36.4014 20.5178 35.9071 21.21C35.4128 21.9023 34.7146 22.4228 33.91 22.6988C33.1055 22.9748 32.2347 22.9925 31.4196 22.7495C30.6044 22.5065 29.8856 22.0149 29.3635 21.3433C28.9823 21.8345 28.4938 22.2319 27.9352 22.5051C27.3767 22.7782 26.7631 22.9199 26.1414 22.9192C25.5196 22.9199 24.906 22.7782 24.3475 22.5051C23.7889 22.2319 23.3004 21.8345 22.9192 21.3433C22.538 21.8345 22.0495 22.2319 21.491 22.5051C20.9324 22.7782 20.3188 22.9199 19.6971 22.9192C19.0753 22.9199 18.4617 22.7782 17.9032 22.5051C17.3447 22.2319 16.8561 21.8345 16.4749 21.3433C15.9528 22.0149 15.234 22.5065 14.4188 22.7495C13.6037 22.9925 12.733 22.9748 11.9284 22.6988C11.1238 22.4228 10.4256 21.9023 9.93127 21.21C9.43696 20.5178 9.17129 19.6884 9.17139 18.8378V18.3996C9.17141 17.7844 9.39145 17.1895 9.79176 16.7223L14.2753 11.4913ZM17.3342 18.8378C17.3342 19.4645 17.5831 20.0655 18.0262 20.5086C18.4694 20.9517 19.0704 21.2007 19.6971 21.2007C20.3237 21.2007 20.9248 20.9517 21.3679 20.5086C21.811 20.0655 22.06 19.4645 22.06 18.8378C22.06 18.6099 22.1505 18.3914 22.3116 18.2302C22.4728 18.0691 22.6913 17.9786 22.9192 17.9786C23.1471 17.9786 23.3656 18.0691 23.5268 18.2302C23.6879 18.3914 23.7784 18.6099 23.7784 18.8378C23.7784 19.4645 24.0274 20.0655 24.4705 20.5086C24.9137 20.9517 25.5147 21.2007 26.1414 21.2007C26.768 21.2007 27.369 20.9517 27.8122 20.5086C28.2553 20.0655 28.5043 19.4645 28.5043 18.8378C28.5043 18.6099 28.5948 18.3914 28.7559 18.2302C28.9171 18.0691 29.1356 17.9786 29.3635 17.9786C29.5914 17.9786 29.8099 18.0691 29.9711 18.2302C30.1322 18.3914 30.2227 18.6099 30.2227 18.8378C30.2227 19.4645 30.4717 20.0655 30.9148 20.5086C31.3579 20.9517 31.959 21.2007 32.5856 21.2007C33.2123 21.2007 33.8133 20.9517 34.2565 20.5086C34.6996 20.0655 34.9485 19.4645 34.9485 18.8378V18.3996C34.9486 18.1948 34.8754 17.9967 34.7423 17.8411L30.2571 12.6083H15.5813L11.0961 17.8411C10.963 17.9967 10.8898 18.1948 10.8899 18.3996V18.8378C10.8899 19.4645 11.1388 20.0655 11.5819 20.5086C12.0251 20.9517 12.6261 21.2007 13.2528 21.2007C13.8795 21.2007 14.4805 20.9517 14.9236 20.5086C15.3667 20.0655 15.6157 19.4645 15.6157 18.8378C15.6157 18.6099 15.7062 18.3914 15.8673 18.2302C16.0285 18.0691 16.247 17.9786 16.4749 17.9786C16.7028 17.9786 16.9214 18.0691 17.0825 18.2302C17.2436 18.3914 17.3342 18.6099 17.3342 18.8378ZM11.7491 23.7784C11.977 23.7784 12.1955 23.8689 12.3567 24.0301C12.5178 24.1912 12.6083 24.4098 12.6083 24.6377V34.9485H14.3268V26.3561C14.3268 25.9004 14.5079 25.4633 14.8301 25.141C15.1524 24.8187 15.5895 24.6377 16.0453 24.6377H21.2007C21.6565 24.6377 22.0936 24.8187 22.4159 25.141C22.7382 25.4633 22.9192 25.9004 22.9192 26.3561V34.9485H33.2301V24.6377C33.2301 24.4098 33.3206 24.1912 33.4817 24.0301C33.6429 23.8689 33.8614 23.7784 34.0893 23.7784C34.3172 23.7784 34.5357 23.8689 34.6969 24.0301C34.858 24.1912 34.9485 24.4098 34.9485 24.6377V34.9485H35.8078C36.0357 34.9485 36.2542 35.039 36.4154 35.2002C36.5765 35.3613 36.667 35.5799 36.667 35.8078C36.667 36.0356 36.5765 36.2542 36.4154 36.4153C36.2542 36.5765 36.0357 36.667 35.8078 36.667H10.0306C9.80274 36.667 9.58419 36.5765 9.42305 36.4153C9.26191 36.2542 9.17139 36.0356 9.17139 35.8078C9.17139 35.5799 9.26191 35.3613 9.42305 35.2002C9.58419 35.039 9.80274 34.9485 10.0306 34.9485H10.8899V24.6377C10.8899 24.4098 10.9804 24.1912 11.1415 24.0301C11.3027 23.8689 11.5212 23.7784 11.7491 23.7784ZM16.0453 34.9485H21.2007V26.3561H16.0453V34.9485ZM24.6377 26.3561C24.6377 25.9004 24.8187 25.4633 25.141 25.141C25.4633 24.8187 25.9004 24.6377 26.3562 24.6377H29.7931C30.2489 24.6377 30.686 24.8187 31.0083 25.141C31.3305 25.4633 31.5116 25.9004 31.5116 26.3561V31.5116C31.5116 31.9673 31.3305 32.4044 31.0083 32.7267C30.686 33.049 30.2489 33.23 29.7931 33.23H26.3562C25.9004 33.23 25.4633 33.049 25.141 32.7267C24.8187 32.4044 24.6377 31.9673 24.6377 31.5116V26.3561ZM29.7931 26.3561H26.3562V31.5116H29.7931V26.3561Z" fill="#2C2D5B"/>
</g>
</g>
<defs>
<filter id="filter0_d_12_75" x="-3.42114" y="0.578949" width="55.0176" height="55.0175" filterUnits="userSpaceOnUse" color-interpolation-filters="sRGB">
<feFlood flood-opacity="0" result="BackgroundImageFix"/>
<feColorMatrix in="SourceAlpha" type="matrix" values="0 0 0 0 0 0 0 0 0 0 0 0 0 0 0 0 0 0 127 0" result="hardAlpha"/>
<feOffset dy="4"/>
<feGaussianBlur stdDeviation="2"/>
<feComposite in2="hardAlpha" operator="out"/>
<feColorMatrix type="matrix" values="0 0 0 0 0 0 0 0 0 0 0 0 0 0 0 0 0 0 0.25 0"/>
<feBlend mode="normal" in2="BackgroundImageFix" result="effect1_dropShadow_12_75"/>
<feBlend mode="normal" in="SourceGraphic" in2="effect1_dropShadow_12_75" result="shape"/>
</filter>
<clipPath id="clip0_12_75">
<rect width="27.4956" height="27.4956" fill="white" transform="translate(9.17139 9.17136)"/>
</clipPath>
</defs>
</svg>
